<svg width="721" height="446" viewBox="0 0 721 446" fill="none" xmlns="http://www.w3.org/2000/svg">
<g filter="url(#filter0_d_304_51)">
<path d="M686 436C699.807 436 711 424.807 711 411V348.479L481.333 245.482L261.758 436H686Z" fill="url(#paint0_linear_304_51)"/>
<path d="M22 39.4875V411C22 424.807 33.1929 436 47 436H261.758L481.333 245.482L22 39.4875Z" fill="url(#paint1_linear_304_51)"/>
<path d="M711 35C711 21.1929 699.807 10 686 10H47C33.1929 10 22 21.1929 22 35V39.4875L481.333 245.482L711 348.479V35Z" fill="url(#paint2_linear_304_51)"/>
</g>
<line x1="239" y1="301.5" x2="542" y2="301.5" stroke="white" stroke-width="3"/>
<path d="M81.7742 294.624C81.7742 292.992 82.1422 291.528 82.8782 290.232C83.6142 288.92 84.6142 287.896 85.8782 287.16C87.1582 286.424 88.5742 286.056 90.1262 286.056C91.9502 286.056 93.5422 286.496 94.9022 287.376C96.2622 288.256 97.2542 289.504 97.8782 291.12H95.2622C94.7982 290.112 94.1262 289.336 93.2462 288.792C92.3822 288.248 91.3422 287.976 90.1262 287.976C88.9582 287.976 87.9102 288.248 86.9822 288.792C86.0542 289.336 85.3262 290.112 84.7982 291.12C84.2702 292.112 84.0062 293.28 84.0062 294.624C84.0062 295.952 84.2702 297.12 84.7982 298.128C85.3262 299.12 86.0542 299.888 86.9822 300.432C87.9102 300.976 88.9582 301.248 90.1262 301.248C91.3422 301.248 92.3822 300.984 93.2462 300.456C94.1262 299.912 94.7982 299.136 95.2622 298.128H97.8782C97.2542 299.728 96.2622 300.968 94.9022 301.848C93.5422 302.712 91.9502 303.144 90.1262 303.144C88.5742 303.144 87.1582 302.784 85.8782 302.064C84.6142 301.328 83.6142 300.312 82.8782 299.016C82.1422 297.72 81.7742 296.256 81.7742 294.624ZM106.865 303.216C105.633 303.216 104.513 302.936 103.505 302.376C102.513 301.816 101.729 301.024 101.153 300C100.593 298.96 100.313 297.76 100.313 296.4C100.313 295.056 100.601 293.872 101.177 292.848C101.769 291.808 102.569 291.016 103.577 290.472C104.585 289.912 105.713 289.632 106.961 289.632C108.209 289.632 109.337 289.912 110.345 290.472C111.353 291.016 112.145 291.8 112.721 292.824C113.313 293.848 113.609 295.04 113.609 296.4C113.609 297.76 113.305 298.96 112.697 300C112.105 301.024 111.297 301.816 110.273 302.376C109.249 302.936 108.113 303.216 106.865 303.216ZM106.865 301.296C107.649 301.296 108.385 301.112 109.073 300.744C109.761 300.376 110.313 299.824 110.729 299.088C111.161 298.352 111.377 297.456 111.377 296.4C111.377 295.344 111.169 294.448 110.753 293.712C110.337 292.976 109.793 292.432 109.121 292.08C108.449 291.712 107.721 291.528 106.937 291.528C106.137 291.528 105.401 291.712 104.729 292.08C104.073 292.432 103.545 292.976 103.145 293.712C102.745 294.448 102.545 295.344 102.545 296.4C102.545 297.472 102.737 298.376 103.121 299.112C103.521 299.848 104.049 300.4 104.705 300.768C105.361 301.12 106.081 301.296 106.865 301.296ZM122.889 289.608C124.489 289.608 125.785 290.096 126.777 291.072C127.769 292.032 128.265 293.424 128.265 295.248V303H126.105V295.56C126.105 294.248 125.777 293.248 125.121 292.56C124.465 291.856 123.569 291.504 122.433 291.504C121.281 291.504 120.361 291.864 119.673 292.584C119.001 293.304 118.665 294.352 118.665 295.728V303H116.481V289.848H118.665V291.72C119.097 291.048 119.681 290.528 120.417 290.16C121.169 289.792 121.993 289.608 122.889 289.608ZM134.496 291.648V299.4C134.496 300.04 134.632 300.496 134.904 300.768C135.176 301.024 135.648 301.152 136.32 301.152H137.928V303H135.96C134.744 303 133.832 302.72 133.224 302.16C132.616 301.6 132.312 300.68 132.312 299.4V291.648H130.608V289.848H132.312V286.536H134.496V289.848H137.928V291.648H134.496ZM142.759 291.984C143.143 291.232 143.687 290.648 144.391 290.232C145.111 289.816 145.983 289.608 147.007 289.608V291.864H146.431C143.983 291.864 142.759 293.192 142.759 295.848V303H140.575V289.848H142.759V291.984ZM148.712 296.376C148.712 295.032 148.984 293.856 149.528 292.848C150.072 291.824 150.816 291.032 151.76 290.472C152.72 289.912 153.784 289.632 154.952 289.632C156.104 289.632 157.104 289.88 157.952 290.376C158.8 290.872 159.432 291.496 159.848 292.248V289.848H162.056V303H159.848V300.552C159.416 301.32 158.768 301.96 157.904 302.472C157.056 302.968 156.064 303.216 154.928 303.216C153.76 303.216 152.704 302.928 151.76 302.352C150.816 301.776 150.072 300.968 149.528 299.928C148.984 298.888 148.712 297.704 148.712 296.376ZM159.848 296.4C159.848 295.408 159.648 294.544 159.248 293.808C158.848 293.072 158.304 292.512 157.616 292.128C156.944 291.728 156.2 291.528 155.384 291.528C154.568 291.528 153.824 291.72 153.152 292.104C152.48 292.488 151.944 293.048 151.544 293.784C151.144 294.52 150.944 295.384 150.944 296.376C150.944 297.384 151.144 298.264 151.544 299.016C151.944 299.752 152.48 300.32 153.152 300.72C153.824 301.104 154.568 301.296 155.384 301.296C156.2 301.296 156.944 301.104 157.616 300.72C158.304 300.32 158.848 299.752 159.248 299.016C159.648 298.264 159.848 297.392 159.848 296.4ZM170.402 303.216C169.394 303.216 168.49 303.048 167.69 302.712C166.89 302.36 166.258 301.88 165.794 301.272C165.33 300.648 165.074 299.936 165.026 299.136H167.282C167.346 299.792 167.65 300.328 168.194 300.744C168.754 301.16 169.482 301.368 170.378 301.368C171.21 301.368 171.866 301.184 172.346 300.816C172.826 300.448 173.066 299.984 173.066 299.424C173.066 298.848 172.81 298.424 172.298 298.152C171.786 297.864 170.994 297.584 169.922 297.312C168.946 297.056 168.146 296.8 167.522 296.544C166.914 296.272 166.386 295.88 165.938 295.368C165.506 294.84 165.29 294.152 165.29 293.304C165.29 292.632 165.49 292.016 165.89 291.456C166.29 290.896 166.858 290.456 167.594 290.136C168.33 289.8 169.17 289.632 170.114 289.632C171.57 289.632 172.746 290 173.642 290.736C174.538 291.472 175.018 292.48 175.082 293.76H172.898C172.85 293.072 172.57 292.52 172.058 292.104C171.562 291.688 170.89 291.48 170.042 291.48C169.258 291.48 168.634 291.648 168.17 291.984C167.706 292.32 167.474 292.76 167.474 293.304C167.474 293.736 167.61 294.096 167.882 294.384C168.17 294.656 168.522 294.88 168.938 295.056C169.37 295.216 169.962 295.4 170.714 295.608C171.658 295.864 172.426 296.12 173.018 296.376C173.61 296.616 174.114 296.984 174.53 297.48C174.962 297.976 175.186 298.624 175.202 299.424C175.202 300.144 175.002 300.792 174.602 301.368C174.202 301.944 173.634 302.4 172.898 302.736C172.178 303.056 171.346 303.216 170.402 303.216ZM190.286 295.92C190.286 296.336 190.262 296.776 190.214 297.24H179.702C179.782 298.536 180.222 299.552 181.022 300.288C181.838 301.008 182.822 301.368 183.974 301.368C184.918 301.368 185.702 301.152 186.326 300.72C186.966 300.272 187.414 299.68 187.67 298.944H190.022C189.67 300.208 188.966 301.24 187.91 302.04C186.854 302.824 185.542 303.216 183.974 303.216C182.726 303.216 181.606 302.936 180.614 302.376C179.638 301.816 178.87 301.024 178.31 300C177.75 298.96 177.47 297.76 177.47 296.4C177.47 295.04 177.742 293.848 178.286 292.824C178.83 291.8 179.59 291.016 180.566 290.472C181.558 289.912 182.694 289.632 183.974 289.632C185.222 289.632 186.326 289.904 187.286 290.448C188.246 290.992 188.982 291.744 189.494 292.704C190.022 293.648 190.286 294.72 190.286 295.92ZM188.03 295.464C188.03 294.632 187.846 293.92 187.478 293.328C187.11 292.72 186.606 292.264 185.966 291.96C185.342 291.64 184.646 291.48 183.878 291.48C182.774 291.48 181.83 291.832 181.046 292.536C180.278 293.24 179.838 294.216 179.726 295.464H188.03ZM199.576 289.608C201.176 289.608 202.472 290.096 203.464 291.072C204.456 292.032 204.952 293.424 204.952 295.248V303H202.792V295.56C202.792 294.248 202.464 293.248 201.808 292.56C201.152 291.856 200.256 291.504 199.12 291.504C197.968 291.504 197.048 291.864 196.36 292.584C195.688 293.304 195.352 294.352 195.352 295.728V303H193.168V289.848H195.352V291.72C195.784 291.048 196.368 290.528 197.104 290.16C197.856 289.792 198.68 289.608 199.576 289.608ZM195.52 288.432C195.632 287.616 195.896 286.992 196.312 286.56C196.744 286.128 197.28 285.912 197.92 285.912C198.224 285.912 198.48 285.968 198.688 286.08C198.912 286.176 199.176 286.32 199.48 286.512C199.704 286.672 199.904 286.8 200.08 286.896C200.256 286.976 200.448 287.016 200.656 287.016C200.928 287.016 201.16 286.928 201.352 286.752C201.544 286.576 201.664 286.32 201.712 285.984H202.96C202.864 286.784 202.6 287.4 202.168 287.832C201.736 288.264 201.2 288.48 200.56 288.48C200.256 288.48 199.984 288.432 199.744 288.336C199.52 288.224 199.264 288.064 198.976 287.856C198.72 287.696 198.512 287.576 198.352 287.496C198.208 287.416 198.032 287.376 197.824 287.376C197.552 287.376 197.32 287.464 197.128 287.64C196.952 287.816 196.84 288.08 196.792 288.432H195.52ZM207.704 296.376C207.704 295.032 207.976 293.856 208.52 292.848C209.064 291.824 209.808 291.032 210.752 290.472C211.712 289.912 212.776 289.632 213.944 289.632C215.096 289.632 216.096 289.88 216.944 290.376C217.792 290.872 218.424 291.496 218.84 292.248V289.848H221.048V303H218.84V300.552C218.408 301.32 217.76 301.96 216.896 302.472C216.048 302.968 215.056 303.216 213.92 303.216C212.752 303.216 211.696 302.928 210.752 302.352C209.808 301.776 209.064 300.968 208.52 299.928C207.976 298.888 207.704 297.704 207.704 296.376ZM218.84 296.4C218.84 295.408 218.64 294.544 218.24 293.808C217.84 293.072 217.296 292.512 216.608 292.128C215.936 291.728 215.192 291.528 214.376 291.528C213.56 291.528 212.816 291.72 212.144 292.104C211.472 292.488 210.936 293.048 210.536 293.784C210.136 294.52 209.936 295.384 209.936 296.376C209.936 297.384 210.136 298.264 210.536 299.016C210.936 299.752 211.472 300.32 212.144 300.72C212.816 301.104 213.56 301.296 214.376 301.296C215.192 301.296 215.936 301.104 216.608 300.72C217.296 300.32 217.84 299.752 218.24 299.016C218.64 298.264 218.84 297.392 218.84 296.4ZM225.435 303.144C225.019 303.144 224.667 303 224.379 302.712C224.091 302.424 223.947 302.072 223.947 301.656C223.947 301.24 224.091 300.888 224.379 300.6C224.667 300.312 225.019 300.168 225.435 300.168C225.835 300.168 226.171 300.312 226.443 300.6C226.731 300.888 226.875 301.24 226.875 301.656C226.875 302.072 226.731 302.424 226.443 302.712C226.171 303 225.835 303.144 225.435 303.144ZM225.435 292.872C225.019 292.872 224.667 292.728 224.379 292.44C224.091 292.152 223.947 291.8 223.947 291.384C223.947 290.968 224.091 290.616 224.379 290.328C224.667 290.04 225.019 289.896 225.435 289.896C225.835 289.896 226.171 290.04 226.443 290.328C226.731 290.616 226.875 290.968 226.875 291.384C226.875 291.8 226.731 292.152 226.443 292.44C226.171 292.728 225.835 292.872 225.435 292.872Z" fill="white"/>
<line x1="239" y1="251.5" x2="542" y2="251.5" stroke="white" stroke-width="3"/>
<path d="M129.16 236.392V253H126.976V240.616L121.456 253H119.92L114.376 240.592V253H112.192V236.392H114.544L120.688 250.12L126.832 236.392H129.16ZM132.048 246.376C132.048 245.032 132.32 243.856 132.864 242.848C133.408 241.824 134.152 241.032 135.096 240.472C136.056 239.912 137.12 239.632 138.288 239.632C139.44 239.632 140.44 239.88 141.288 240.376C142.136 240.872 142.768 241.496 143.184 242.248V239.848H145.392V253H143.184V250.552C142.752 251.32 142.104 251.96 141.24 252.472C140.392 252.968 139.4 253.216 138.264 253.216C137.096 253.216 136.04 252.928 135.096 252.352C134.152 251.776 133.408 250.968 132.864 249.928C132.32 248.888 132.048 247.704 132.048 246.376ZM143.184 246.4C143.184 245.408 142.984 244.544 142.584 243.808C142.184 243.072 141.64 242.512 140.952 242.128C140.28 241.728 139.536 241.528 138.72 241.528C137.904 241.528 137.16 241.72 136.488 242.104C135.816 242.488 135.28 243.048 134.88 243.784C134.48 244.52 134.28 245.384 134.28 246.376C134.28 247.384 134.48 248.264 134.88 249.016C135.28 249.752 135.816 250.32 136.488 250.72C137.16 251.104 137.904 251.296 138.72 251.296C139.536 251.296 140.28 251.104 140.952 250.72C141.64 250.32 142.184 249.752 142.584 249.016C142.984 248.264 143.184 247.392 143.184 246.4ZM151.746 241.648V249.4C151.746 250.04 151.882 250.496 152.154 250.768C152.426 251.024 152.898 251.152 153.57 251.152H155.178V253H153.21C151.994 253 151.082 252.72 150.474 252.16C149.866 251.6 149.562 250.68 149.562 249.4V241.648H147.858V239.848H149.562V236.536H151.746V239.848H155.178V241.648H151.746ZM160.009 241.984C160.393 241.232 160.937 240.648 161.641 240.232C162.361 239.816 163.233 239.608 164.257 239.608V241.864H163.681C161.233 241.864 160.009 243.192 160.009 245.848V253H157.825V239.848H160.009V241.984ZM168.962 239.848V253H166.778V239.848H168.962ZM170.21 236.128L165.098 238.864V237.232L170.21 234.232V236.128ZM171.868 246.4C171.868 245.04 172.14 243.856 172.684 242.848C173.228 241.824 173.98 241.032 174.94 240.472C175.916 239.912 177.028 239.632 178.276 239.632C179.892 239.632 181.22 240.024 182.26 240.808C183.316 241.592 184.012 242.68 184.348 244.072H181.996C181.772 243.272 181.332 242.64 180.676 242.176C180.036 241.712 179.236 241.48 178.276 241.48C177.028 241.48 176.02 241.912 175.252 242.776C174.484 243.624 174.1 244.832 174.1 246.4C174.1 247.984 174.484 249.208 175.252 250.072C176.02 250.936 177.028 251.368 178.276 251.368C179.236 251.368 180.036 251.144 180.676 250.696C181.316 250.248 181.756 249.608 181.996 248.776H184.348C183.996 250.12 183.292 251.2 182.236 252.016C181.18 252.816 179.86 253.216 178.276 253.216C177.028 253.216 175.916 252.936 174.94 252.376C173.98 251.816 173.228 251.024 172.684 250C172.14 248.976 171.868 247.776 171.868 246.4ZM198.926 239.848V253H196.742V251.056C196.326 251.728 195.742 252.256 194.99 252.64C194.254 253.008 193.438 253.192 192.542 253.192C191.518 253.192 190.598 252.984 189.782 252.568C188.966 252.136 188.318 251.496 187.838 250.648C187.374 249.8 187.142 248.768 187.142 247.552V239.848H189.302V247.264C189.302 248.56 189.63 249.56 190.286 250.264C190.942 250.952 191.838 251.296 192.974 251.296C194.142 251.296 195.062 250.936 195.734 250.216C196.406 249.496 196.742 248.448 196.742 247.072V239.848H198.926ZM204.798 235.24V253H202.614V235.24H204.798ZM207.704 246.376C207.704 245.032 207.976 243.856 208.52 242.848C209.064 241.824 209.808 241.032 210.752 240.472C211.712 239.912 212.776 239.632 213.944 239.632C215.096 239.632 216.096 239.88 216.944 240.376C217.792 240.872 218.424 241.496 218.84 242.248V239.848H221.048V253H218.84V250.552C218.408 251.32 217.76 251.96 216.896 252.472C216.048 252.968 215.056 253.216 213.92 253.216C212.752 253.216 211.696 252.928 210.752 252.352C209.808 251.776 209.064 250.968 208.52 249.928C207.976 248.888 207.704 247.704 207.704 246.376ZM218.84 246.4C218.84 245.408 218.64 244.544 218.24 243.808C217.84 243.072 217.296 242.512 216.608 242.128C215.936 241.728 215.192 241.528 214.376 241.528C213.56 241.528 212.816 241.72 212.144 242.104C211.472 242.488 210.936 243.048 210.536 243.784C210.136 244.52 209.936 245.384 209.936 246.376C209.936 247.384 210.136 248.264 210.536 249.016C210.936 249.752 211.472 250.32 212.144 250.72C212.816 251.104 213.56 251.296 214.376 251.296C215.192 251.296 215.936 251.104 216.608 250.72C217.296 250.32 217.84 249.752 218.24 249.016C218.64 248.264 218.84 247.392 218.84 246.4ZM225.435 253.144C225.019 253.144 224.667 253 224.379 252.712C224.091 252.424 223.947 252.072 223.947 251.656C223.947 251.24 224.091 250.888 224.379 250.6C224.667 250.312 225.019 250.168 225.435 250.168C225.835 250.168 226.171 250.312 226.443 250.6C226.731 250.888 226.875 251.24 226.875 251.656C226.875 252.072 226.731 252.424 226.443 252.712C226.171 253 225.835 253.144 225.435 253.144ZM225.435 242.872C225.019 242.872 224.667 242.728 224.379 242.44C224.091 242.152 223.947 241.8 223.947 241.384C223.947 240.968 224.091 240.616 224.379 240.328C224.667 240.04 225.019 239.896 225.435 239.896C225.835 239.896 226.171 240.04 226.443 240.328C226.731 240.616 226.875 240.968 226.875 241.384C226.875 241.8 226.731 242.152 226.443 242.44C226.171 242.728 225.835 242.872 225.435 242.872Z" fill="white"/>
<g filter="url(#filter1_d_304_51)">
<rect x="277" y="340" width="180" height="53" rx="8" fill="url(#paint3_linear_304_51)"/>
</g>
<path d="M304.803 360.06V374H302.983V360.06H304.803ZM313.245 362.84C314.579 362.84 315.659 363.247 316.485 364.06C317.312 364.86 317.725 366.02 317.725 367.54V374H315.925V367.8C315.925 366.707 315.652 365.873 315.105 365.3C314.559 364.713 313.812 364.42 312.865 364.42C311.905 364.42 311.139 364.72 310.565 365.32C310.005 365.92 309.725 366.793 309.725 367.94V374H307.905V363.04H309.725V364.6C310.085 364.04 310.572 363.607 311.185 363.3C311.812 362.993 312.499 362.84 313.245 362.84ZM321.638 361.26C321.292 361.26 320.998 361.14 320.758 360.9C320.518 360.66 320.398 360.367 320.398 360.02C320.398 359.673 320.518 359.38 320.758 359.14C320.998 358.9 321.292 358.78 321.638 358.78C321.972 358.78 322.252 358.9 322.478 359.14C322.718 359.38 322.838 359.673 322.838 360.02C322.838 360.367 322.718 360.66 322.478 360.9C322.252 361.14 321.972 361.26 321.638 361.26ZM322.518 363.04V374H320.698V363.04H322.518ZM324.94 368.5C324.94 367.367 325.167 366.38 325.62 365.54C326.073 364.687 326.7 364.027 327.5 363.56C328.313 363.093 329.24 362.86 330.28 362.86C331.627 362.86 332.733 363.187 333.6 363.84C334.48 364.493 335.06 365.4 335.34 366.56H333.38C333.193 365.893 332.827 365.367 332.28 364.98C331.747 364.593 331.08 364.4 330.28 364.4C329.24 364.4 328.4 364.76 327.76 365.48C327.12 366.187 326.8 367.193 326.8 368.5C326.8 369.82 327.12 370.84 327.76 371.56C328.4 372.28 329.24 372.64 330.28 372.64C331.08 372.64 331.747 372.453 332.28 372.08C332.813 371.707 333.18 371.173 333.38 370.48H335.34C335.047 371.6 334.46 372.5 333.58 373.18C332.7 373.847 331.6 374.18 330.28 374.18C329.24 374.18 328.313 373.947 327.5 373.48C326.7 373.013 326.073 372.353 325.62 371.5C325.167 370.647 324.94 369.647 324.94 368.5ZM338.709 361.26C338.362 361.26 338.069 361.14 337.829 360.9C337.589 360.66 337.469 360.367 337.469 360.02C337.469 359.673 337.589 359.38 337.829 359.14C338.069 358.9 338.362 358.78 338.709 358.78C339.042 358.78 339.322 358.9 339.549 359.14C339.789 359.38 339.909 359.673 339.909 360.02C339.909 360.367 339.789 360.66 339.549 360.9C339.322 361.14 339.042 361.26 338.709 361.26ZM339.589 363.04V374H337.769V363.04H339.589ZM342.01 368.48C342.01 367.36 342.237 366.38 342.69 365.54C343.144 364.687 343.764 364.027 344.55 363.56C345.35 363.093 346.237 362.86 347.21 362.86C348.17 362.86 349.004 363.067 349.71 363.48C350.417 363.893 350.944 364.413 351.29 365.04V363.04H353.13V374H351.29V371.96C350.93 372.6 350.39 373.133 349.67 373.56C348.964 373.973 348.137 374.18 347.19 374.18C346.217 374.18 345.337 373.94 344.55 373.46C343.764 372.98 343.144 372.307 342.69 371.44C342.237 370.573 342.01 369.587 342.01 368.48ZM351.29 368.5C351.29 367.673 351.124 366.953 350.79 366.34C350.457 365.727 350.004 365.26 349.43 364.94C348.87 364.607 348.25 364.44 347.57 364.44C346.89 364.44 346.27 364.6 345.71 364.92C345.15 365.24 344.704 365.707 344.37 366.32C344.037 366.933 343.87 367.653 343.87 368.48C343.87 369.32 344.037 370.053 344.37 370.68C344.704 371.293 345.15 371.767 345.71 372.1C346.27 372.42 346.89 372.58 347.57 372.58C348.25 372.58 348.87 372.42 349.43 372.1C350.004 371.767 350.457 371.293 350.79 370.68C351.124 370.053 351.29 369.327 351.29 368.5ZM358.026 364.82C358.346 364.193 358.799 363.707 359.386 363.36C359.986 363.013 360.713 362.84 361.566 362.84V364.72H361.086C359.046 364.72 358.026 365.827 358.026 368.04V374H356.206V363.04H358.026V364.82ZM373.419 374.14C372.499 374.14 371.672 373.98 370.939 373.66C370.219 373.327 369.652 372.873 369.239 372.3C368.826 371.713 368.612 371.04 368.599 370.28H370.539C370.606 370.933 370.872 371.487 371.339 371.94C371.819 372.38 372.512 372.6 373.419 372.6C374.286 372.6 374.966 372.387 375.459 371.96C375.966 371.52 376.219 370.96 376.219 370.28C376.219 369.747 376.072 369.313 375.779 368.98C375.486 368.647 375.119 368.393 374.679 368.22C374.239 368.047 373.646 367.86 372.899 367.66C371.979 367.42 371.239 367.18 370.679 366.94C370.132 366.7 369.659 366.327 369.259 365.82C368.872 365.3 368.679 364.607 368.679 363.74C368.679 362.98 368.872 362.307 369.259 361.72C369.646 361.133 370.186 360.68 370.879 360.36C371.586 360.04 372.392 359.88 373.299 359.88C374.606 359.88 375.672 360.207 376.499 360.86C377.339 361.513 377.812 362.38 377.919 363.46H375.919C375.852 362.927 375.572 362.46 375.079 362.06C374.586 361.647 373.932 361.44 373.119 361.44C372.359 361.44 371.739 361.64 371.259 362.04C370.779 362.427 370.539 362.973 370.539 363.68C370.539 364.187 370.679 364.6 370.959 364.92C371.252 365.24 371.606 365.487 372.019 365.66C372.446 365.82 373.039 366.007 373.799 366.22C374.719 366.473 375.459 366.727 376.019 366.98C376.579 367.22 377.059 367.6 377.459 368.12C377.859 368.627 378.059 369.32 378.059 370.2C378.059 370.88 377.879 371.52 377.519 372.12C377.159 372.72 376.626 373.207 375.919 373.58C375.212 373.953 374.379 374.14 373.419 374.14ZM390.737 368.1C390.737 368.447 390.717 368.813 390.677 369.2H381.917C381.984 370.28 382.351 371.127 383.017 371.74C383.697 372.34 384.517 372.64 385.477 372.64C386.264 372.64 386.917 372.46 387.437 372.1C387.971 371.727 388.344 371.233 388.557 370.62H390.517C390.224 371.673 389.637 372.533 388.757 373.2C387.877 373.853 386.784 374.18 385.477 374.18C384.437 374.18 383.504 373.947 382.677 373.48C381.864 373.013 381.224 372.353 380.757 371.5C380.291 370.633 380.057 369.633 380.057 368.5C380.057 367.367 380.284 366.373 380.737 365.52C381.191 364.667 381.824 364.013 382.637 363.56C383.464 363.093 384.411 362.86 385.477 362.86C386.517 362.86 387.437 363.087 388.237 363.54C389.037 363.993 389.651 364.62 390.077 365.42C390.517 366.207 390.737 367.1 390.737 368.1ZM388.857 367.72C388.857 367.027 388.704 366.433 388.397 365.94C388.091 365.433 387.671 365.053 387.137 364.8C386.617 364.533 386.037 364.4 385.397 364.4C384.477 364.4 383.691 364.693 383.037 365.28C382.397 365.867 382.031 366.68 381.937 367.72H388.857ZM397.02 374.18C396.18 374.18 395.426 374.04 394.76 373.76C394.093 373.467 393.566 373.067 393.18 372.56C392.793 372.04 392.58 371.447 392.54 370.78H394.42C394.473 371.327 394.726 371.773 395.18 372.12C395.646 372.467 396.253 372.64 397 372.64C397.693 372.64 398.24 372.487 398.64 372.18C399.04 371.873 399.24 371.487 399.24 371.02C399.24 370.54 399.026 370.187 398.6 369.96C398.173 369.72 397.513 369.487 396.62 369.26C395.806 369.047 395.14 368.833 394.62 368.62C394.113 368.393 393.673 368.067 393.3 367.64C392.94 367.2 392.76 366.627 392.76 365.92C392.76 365.36 392.926 364.847 393.26 364.38C393.593 363.913 394.066 363.547 394.68 363.28C395.293 363 395.993 362.86 396.78 362.86C397.993 362.86 398.973 363.167 399.72 363.78C400.466 364.393 400.866 365.233 400.92 366.3H399.1C399.06 365.727 398.826 365.267 398.4 364.92C397.986 364.573 397.426 364.4 396.72 364.4C396.066 364.4 395.546 364.54 395.16 364.82C394.773 365.1 394.58 365.467 394.58 365.92C394.58 366.28 394.693 366.58 394.92 366.82C395.16 367.047 395.453 367.233 395.8 367.38C396.16 367.513 396.653 367.667 397.28 367.84C398.066 368.053 398.706 368.267 399.2 368.48C399.693 368.68 400.113 368.987 400.46 369.4C400.82 369.813 401.006 370.353 401.02 371.02C401.02 371.62 400.853 372.16 400.52 372.64C400.186 373.12 399.713 373.5 399.1 373.78C398.5 374.047 397.806 374.18 397.02 374.18ZM404.529 361.26C404.182 361.26 403.889 361.14 403.649 360.9C403.409 360.66 403.289 360.367 403.289 360.02C403.289 359.673 403.409 359.38 403.649 359.14C403.889 358.9 404.182 358.78 404.529 358.78C404.862 358.78 405.142 358.9 405.369 359.14C405.609 359.38 405.729 359.673 405.729 360.02C405.729 360.367 405.609 360.66 405.369 360.9C405.142 361.14 404.862 361.26 404.529 361.26ZM405.409 363.04V374H403.589V363.04H405.409ZM413.291 374.18C412.264 374.18 411.331 373.947 410.491 373.48C409.664 373.013 409.011 372.353 408.531 371.5C408.064 370.633 407.831 369.633 407.831 368.5C407.831 367.38 408.071 366.393 408.551 365.54C409.044 364.673 409.711 364.013 410.551 363.56C411.391 363.093 412.331 362.86 413.371 362.86C414.411 362.86 415.351 363.093 416.191 363.56C417.031 364.013 417.691 364.667 418.171 365.52C418.664 366.373 418.911 367.367 418.911 368.5C418.911 369.633 418.657 370.633 418.151 371.5C417.657 372.353 416.984 373.013 416.131 373.48C415.277 373.947 414.331 374.18 413.291 374.18ZM413.291 372.58C413.944 372.58 414.557 372.427 415.131 372.12C415.704 371.813 416.164 371.353 416.511 370.74C416.871 370.127 417.051 369.38 417.051 368.5C417.051 367.62 416.877 366.873 416.531 366.26C416.184 365.647 415.731 365.193 415.171 364.9C414.611 364.593 414.004 364.44 413.351 364.44C412.684 364.44 412.071 364.593 411.511 364.9C410.964 365.193 410.524 365.647 410.191 366.26C409.857 366.873 409.691 367.62 409.691 368.5C409.691 369.393 409.851 370.147 410.171 370.76C410.504 371.373 410.944 371.833 411.491 372.14C412.037 372.433 412.637 372.58 413.291 372.58ZM415.331 359.8L411.071 362.08V360.72L415.331 358.22V359.8ZM426.644 362.84C427.977 362.84 429.057 363.247 429.884 364.06C430.71 364.86 431.124 366.02 431.124 367.54V374H429.324V367.8C429.324 366.707 429.05 365.873 428.504 365.3C427.957 364.713 427.21 364.42 426.264 364.42C425.304 364.42 424.537 364.72 423.964 365.32C423.404 365.92 423.124 366.793 423.124 367.94V374H421.304V363.04H423.124V364.6C423.484 364.04 423.97 363.607 424.584 363.3C425.21 362.993 425.897 362.84 426.644 362.84Z" fill="white"/>
<g filter="url(#filter2_b_304_51)">
<path d="M9 111H464.54L482 128L464.54 147H9V128.5V111Z" fill="url(#paint4_linear_304_51)"/>
</g>
<g filter="url(#filter3_di_304_51)">
<path d="M22 157L9 147H22V157Z" fill="#232D28"/>
</g>
<path d="M131.371 136H128.391C128.138 136 127.951 135.947 127.831 135.84C127.724 135.72 127.671 135.533 127.671 135.28V122.32C127.671 122.067 127.724 121.887 127.831 121.78C127.951 121.66 128.138 121.6 128.391 121.6H131.611C131.824 121.6 131.998 121.647 132.131 121.74C132.278 121.833 132.411 121.987 132.531 122.2L134.331 125.46C134.398 125.58 134.451 125.667 134.491 125.72C134.544 125.773 134.611 125.8 134.691 125.8H134.871C134.951 125.8 135.011 125.773 135.051 125.72C135.104 125.667 135.164 125.58 135.231 125.46L137.011 122.2C137.131 121.987 137.258 121.833 137.391 121.74C137.538 121.647 137.718 121.6 137.931 121.6H141.171C141.424 121.6 141.604 121.66 141.711 121.78C141.831 121.887 141.891 122.067 141.891 122.32V135.28C141.891 135.533 141.831 135.72 141.711 135.84C141.604 135.947 141.424 136 141.171 136H138.091C137.838 136 137.651 135.947 137.531 135.84C137.424 135.72 137.371 135.533 137.371 135.28V128.24L136.191 130.42C136.071 130.647 135.924 130.813 135.751 130.92C135.591 131.013 135.384 131.06 135.131 131.06H134.331C134.078 131.06 133.864 131.013 133.691 130.92C133.531 130.813 133.391 130.647 133.271 130.42L132.091 128.24V135.28C132.091 135.533 132.031 135.72 131.911 135.84C131.804 135.947 131.624 136 131.371 136ZM152.564 125.8L151.624 128.84H154.764L153.824 125.8C153.77 125.68 153.71 125.593 153.644 125.54C153.59 125.487 153.524 125.46 153.444 125.46H152.944C152.864 125.46 152.79 125.487 152.724 125.54C152.67 125.593 152.617 125.68 152.564 125.8ZM151.424 135.28C151.424 135.533 151.364 135.72 151.244 135.84C151.137 135.947 150.957 136 150.704 136H147.764C147.51 136 147.324 135.947 147.204 135.84C147.097 135.72 147.044 135.533 147.044 135.28V130C147.044 129.6 147.104 129.14 147.224 128.62C147.357 128.1 147.557 127.493 147.824 126.8L149.564 122.26C149.644 122.033 149.764 121.867 149.924 121.76C150.097 121.653 150.317 121.6 150.584 121.6H155.964C156.217 121.6 156.424 121.653 156.584 121.76C156.757 121.867 156.884 122.033 156.964 122.26L158.704 126.8C158.97 127.493 159.164 128.1 159.284 128.62C159.417 129.14 159.484 129.6 159.484 130V135.28C159.484 135.533 159.424 135.72 159.304 135.84C159.197 135.947 159.017 136 158.764 136H155.744C155.477 136 155.277 135.947 155.144 135.84C155.024 135.72 154.964 135.533 154.964 135.28V132.48H151.424V135.28ZM170.652 136H167.412C167.159 136 166.972 135.947 166.852 135.84C166.746 135.72 166.692 135.533 166.692 135.28V125.46H163.752C163.499 125.46 163.312 125.407 163.192 125.3C163.086 125.18 163.032 124.993 163.032 124.74V122.32C163.032 122.067 163.086 121.887 163.192 121.78C163.312 121.66 163.499 121.6 163.752 121.6H174.312C174.566 121.6 174.746 121.66 174.852 121.78C174.972 121.887 175.032 122.067 175.032 122.32V124.74C175.032 124.993 174.972 125.18 174.852 125.3C174.746 125.407 174.566 125.46 174.312 125.46H171.372V135.28C171.372 135.533 171.312 135.72 171.192 135.84C171.086 135.947 170.906 136 170.652 136ZM189.677 136H180.397C180.144 136 179.957 135.947 179.837 135.84C179.731 135.72 179.677 135.533 179.677 135.28V122.32C179.677 122.067 179.731 121.887 179.837 121.78C179.957 121.66 180.144 121.6 180.397 121.6H189.677C189.931 121.6 190.111 121.66 190.217 121.78C190.337 121.887 190.397 122.067 190.397 122.32V124.66C190.397 124.913 190.337 125.1 190.217 125.22C190.111 125.327 189.931 125.38 189.677 125.38H184.157V126.92H188.057C188.311 126.92 188.491 126.98 188.597 127.1C188.717 127.207 188.777 127.387 188.777 127.64V129.78C188.777 130.033 188.717 130.22 188.597 130.34C188.491 130.447 188.311 130.5 188.057 130.5H184.157V132.22H189.677C189.931 132.22 190.111 132.28 190.217 132.4C190.337 132.507 190.397 132.687 190.397 132.94V135.28C190.397 135.533 190.337 135.72 190.217 135.84C190.111 135.947 189.931 136 189.677 136ZM199.983 125.2V127.76H201.483C201.83 127.76 202.063 127.673 202.183 127.5C202.303 127.313 202.363 127.087 202.363 126.82V126.14C202.363 125.873 202.303 125.653 202.183 125.48C202.063 125.293 201.83 125.2 201.483 125.2H199.983ZM199.263 136H196.183C195.93 136 195.743 135.947 195.623 135.84C195.517 135.72 195.463 135.533 195.463 135.28V122.32C195.463 122.067 195.517 121.887 195.623 121.78C195.743 121.66 195.93 121.6 196.183 121.6H202.843C204.337 121.6 205.363 121.913 205.923 122.54C206.497 123.153 206.783 123.953 206.783 124.94V125.86C206.783 126.42 206.697 126.9 206.523 127.3C206.363 127.687 206.077 127.967 205.663 128.14C206.383 128.22 206.963 128.513 207.403 129.02C207.857 129.527 208.083 130.2 208.083 131.04V135.28C208.083 135.533 208.023 135.72 207.903 135.84C207.797 135.947 207.617 136 207.363 136H204.263C204.01 136 203.823 135.947 203.703 135.84C203.597 135.72 203.543 135.533 203.543 135.28V132.22C203.543 131.927 203.483 131.713 203.363 131.58C203.257 131.433 203.063 131.36 202.783 131.36H199.983V135.28C199.983 135.533 199.923 135.72 199.803 135.84C199.697 135.947 199.517 136 199.263 136ZM213.426 136C213.173 136 212.986 135.947 212.866 135.84C212.76 135.72 212.706 135.533 212.706 135.28V132.9C212.706 132.647 212.76 132.467 212.866 132.36C212.986 132.24 213.173 132.18 213.426 132.18H215.406V125.46H213.426C213.173 125.46 212.986 125.407 212.866 125.3C212.76 125.18 212.706 124.993 212.706 124.74V122.32C212.706 122.067 212.76 121.887 212.866 121.78C212.986 121.66 213.173 121.6 213.426 121.6H221.946C222.2 121.6 222.38 121.66 222.486 121.78C222.606 121.887 222.666 122.067 222.666 122.32V124.74C222.666 124.993 222.606 125.18 222.486 125.3C222.38 125.407 222.2 125.46 221.946 125.46H220.006V132.18H221.946C222.2 132.18 222.38 132.24 222.486 132.36C222.606 132.467 222.666 132.647 222.666 132.9V135.28C222.666 135.533 222.606 135.72 222.486 135.84C222.38 135.947 222.2 136 221.946 136H213.426ZM233.056 125.8L232.116 128.84H235.256L234.316 125.8C234.263 125.68 234.203 125.593 234.136 125.54C234.083 125.487 234.016 125.46 233.936 125.46H233.436C233.356 125.46 233.283 125.487 233.216 125.54C233.163 125.593 233.109 125.68 233.056 125.8ZM231.916 135.28C231.916 135.533 231.856 135.72 231.736 135.84C231.629 135.947 231.449 136 231.196 136H228.256C228.003 136 227.816 135.947 227.696 135.84C227.589 135.72 227.536 135.533 227.536 135.28V130C227.536 129.6 227.596 129.14 227.716 128.62C227.849 128.1 228.049 127.493 228.316 126.8L230.056 122.26C230.136 122.033 230.256 121.867 230.416 121.76C230.589 121.653 230.809 121.6 231.076 121.6H236.456C236.709 121.6 236.916 121.653 237.076 121.76C237.249 121.867 237.376 122.033 237.456 122.26L239.196 126.8C239.463 127.493 239.656 128.1 239.776 128.62C239.909 129.14 239.976 129.6 239.976 130V135.28C239.976 135.533 239.916 135.72 239.796 135.84C239.689 135.947 239.509 136 239.256 136H236.236C235.969 136 235.769 135.947 235.636 135.84C235.516 135.72 235.456 135.533 235.456 135.28V132.48H231.916V135.28ZM256.045 136H245.865C245.612 136 245.425 135.947 245.305 135.84C245.199 135.72 245.145 135.533 245.145 135.28V122.32C245.145 122.067 245.199 121.887 245.305 121.78C245.425 121.66 245.612 121.6 245.865 121.6H248.965C249.219 121.6 249.399 121.66 249.505 121.78C249.625 121.887 249.685 122.067 249.685 122.32V132.22H252.425V128.98C252.425 128.727 252.479 128.547 252.585 128.44C252.705 128.32 252.892 128.26 253.145 128.26H256.045C256.299 128.26 256.479 128.32 256.585 128.44C256.705 128.547 256.765 128.727 256.765 128.98V135.28C256.765 135.533 256.705 135.72 256.585 135.84C256.479 135.947 256.299 136 256.045 136ZM276.208 136H269.468C269.215 136 269.028 135.947 268.908 135.84C268.802 135.72 268.748 135.533 268.748 135.28V122.32C268.748 122.067 268.802 121.887 268.908 121.78C269.028 121.66 269.215 121.6 269.468 121.6H276.208C277.875 121.6 279.108 121.933 279.908 122.6C280.722 123.267 281.128 124.293 281.128 125.68V131.92C281.128 133.307 280.722 134.333 279.908 135C279.108 135.667 277.875 136 276.208 136ZM273.288 125.42V132.22H275.668C275.988 132.22 276.222 132.14 276.368 131.98C276.528 131.82 276.608 131.573 276.608 131.24V126.38C276.608 126.047 276.528 125.807 276.368 125.66C276.222 125.5 275.988 125.42 275.668 125.42H273.288ZM286.77 136C286.517 136 286.33 135.947 286.21 135.84C286.104 135.72 286.05 135.533 286.05 135.28V132.9C286.05 132.647 286.104 132.467 286.21 132.36C286.33 132.24 286.517 132.18 286.77 132.18H288.75V125.46H286.77C286.517 125.46 286.33 125.407 286.21 125.3C286.104 125.18 286.05 124.993 286.05 124.74V122.32C286.05 122.067 286.104 121.887 286.21 121.78C286.33 121.66 286.517 121.6 286.77 121.6H295.29C295.544 121.6 295.724 121.66 295.83 121.78C295.95 121.887 296.01 122.067 296.01 122.32V124.74C296.01 124.993 295.95 125.18 295.83 125.3C295.724 125.407 295.544 125.46 295.29 125.46H293.35V132.18H295.29C295.544 132.18 295.724 132.24 295.83 132.36C295.95 132.467 296.01 132.647 296.01 132.9V135.28C296.01 135.533 295.95 135.72 295.83 135.84C295.724 135.947 295.544 136 295.29 136H286.77ZM312.18 136H305.88C304.213 136 302.973 135.667 302.16 135C301.36 134.333 300.96 133.307 300.96 131.92V125.68C300.96 124.293 301.36 123.267 302.16 122.6C302.973 121.933 304.213 121.6 305.88 121.6H310.88C311.133 121.6 311.313 121.66 311.42 121.78C311.54 121.887 311.6 122.067 311.6 122.32V124.74C311.6 124.993 311.54 125.18 311.42 125.3C311.313 125.407 311.133 125.46 310.88 125.46H306.72C306.306 125.46 306 125.547 305.8 125.72C305.6 125.88 305.5 126.127 305.5 126.46V131.24C305.5 131.573 305.573 131.82 305.72 131.98C305.88 132.14 306.113 132.22 306.42 132.22H308.36V129.1C308.36 128.847 308.413 128.667 308.52 128.56C308.64 128.44 308.826 128.38 309.08 128.38H312.18C312.433 128.38 312.613 128.44 312.72 128.56C312.84 128.667 312.9 128.847 312.9 129.1V135.28C312.9 135.533 312.84 135.72 312.72 135.84C312.613 135.947 312.433 136 312.18 136ZM318.44 136C318.186 136 318 135.947 317.88 135.84C317.773 135.72 317.72 135.533 317.72 135.28V132.9C317.72 132.647 317.773 132.467 317.88 132.36C318 132.24 318.186 132.18 318.44 132.18H320.42V125.46H318.44C318.186 125.46 318 125.407 317.88 125.3C317.773 125.18 317.72 124.993 317.72 124.74V122.32C317.72 122.067 317.773 121.887 317.88 121.78C318 121.66 318.186 121.6 318.44 121.6H326.96C327.213 121.6 327.393 121.66 327.5 121.78C327.62 121.887 327.68 122.067 327.68 122.32V124.74C327.68 124.993 327.62 125.18 327.5 125.3C327.393 125.407 327.213 125.46 326.96 125.46H325.02V132.18H326.96C327.213 132.18 327.393 132.24 327.5 132.36C327.62 132.467 327.68 132.647 327.68 132.9V135.28C327.68 135.533 327.62 135.72 327.5 135.84C327.393 135.947 327.213 136 326.96 136H318.44ZM339.649 136H336.409C336.156 136 335.969 135.947 335.849 135.84C335.742 135.72 335.689 135.533 335.689 135.28V125.46H332.749C332.496 125.46 332.309 125.407 332.189 125.3C332.082 125.18 332.029 124.993 332.029 124.74V122.32C332.029 122.067 332.082 121.887 332.189 121.78C332.309 121.66 332.496 121.6 332.749 121.6H343.309C343.562 121.6 343.742 121.66 343.849 121.78C343.969 121.887 344.029 122.067 344.029 122.32V124.74C344.029 124.993 343.969 125.18 343.849 125.3C343.742 125.407 343.562 125.46 343.309 125.46H340.369V135.28C340.369 135.533 340.309 135.72 340.189 135.84C340.082 135.947 339.902 136 339.649 136ZM353.093 125.8L352.153 128.84H355.293L354.353 125.8C354.3 125.68 354.24 125.593 354.173 125.54C354.12 125.487 354.053 125.46 353.973 125.46H353.473C353.393 125.46 353.32 125.487 353.253 125.54C353.2 125.593 353.147 125.68 353.093 125.8ZM351.953 135.28C351.953 135.533 351.893 135.72 351.773 135.84C351.667 135.947 351.487 136 351.233 136H348.293C348.04 136 347.853 135.947 347.733 135.84C347.627 135.72 347.573 135.533 347.573 135.28V130C347.573 129.6 347.633 129.14 347.753 128.62C347.887 128.1 348.087 127.493 348.353 126.8L350.093 122.26C350.173 122.033 350.293 121.867 350.453 121.76C350.627 121.653 350.847 121.6 351.113 121.6H356.493C356.747 121.6 356.953 121.653 357.113 121.76C357.287 121.867 357.413 122.033 357.493 122.26L359.233 126.8C359.5 127.493 359.693 128.1 359.813 128.62C359.947 129.14 360.013 129.6 360.013 130V135.28C360.013 135.533 359.953 135.72 359.833 135.84C359.727 135.947 359.547 136 359.293 136H356.273C356.007 136 355.807 135.947 355.673 135.84C355.553 135.72 355.493 135.533 355.493 135.28V132.48H351.953V135.28ZM376.083 136H365.903C365.649 136 365.463 135.947 365.343 135.84C365.236 135.72 365.183 135.533 365.183 135.28V122.32C365.183 122.067 365.236 121.887 365.343 121.78C365.463 121.66 365.649 121.6 365.903 121.6H369.003C369.256 121.6 369.436 121.66 369.543 121.78C369.663 121.887 369.723 122.067 369.723 122.32V132.22H372.463V128.98C372.463 128.727 372.516 128.547 372.623 128.44C372.743 128.32 372.929 128.26 373.183 128.26H376.083C376.336 128.26 376.516 128.32 376.623 128.44C376.743 128.547 376.803 128.727 376.803 128.98V135.28C376.803 135.533 376.743 135.72 376.623 135.84C376.516 135.947 376.336 136 376.083 136Z" fill="white"/>
<path d="M531.158 32L561.726 49.3535M531.158 32L517 52.8885L531.158 74.4197M531.158 32V58.673M561.726 49.3535L600.661 45.8185M561.726 49.3535L531.158 58.673M561.726 49.3535L531.158 74.4197M600.661 45.8185L639.595 49.3535M600.661 45.8185L560.439 98.8431M600.661 45.8185L531.158 74.4197M600.661 45.8185L669.842 73.7769M600.661 45.8185L640.561 98.8431M639.595 49.3535L669.842 32M639.595 49.3535L669.842 58.673M639.595 49.3535L669.842 73.7769M669.842 32L684 52.8885L669.842 73.7769M669.842 32V58.673M669.842 73.7769L677.886 120.374M669.842 73.7769V58.673M669.842 73.7769L640.561 98.8431M677.886 120.374L661.798 165.043M677.886 120.374L640.561 98.8431M677.886 120.374L654.397 148.654M661.798 165.043L654.397 148.654M661.798 165.043L660.265 167.161M629.62 202L600.661 195.251M629.62 202L628.977 171.149M629.62 202L660.265 167.161M600.661 195.251L572.667 201.036M600.661 195.251L573.31 171.149M600.661 195.251L628.977 171.149M572.667 201.036L573.31 171.149M572.667 201.036L541.455 167.161M539.524 165.043L523.435 120.374M539.524 165.043L547.568 148.654M539.524 165.043L541.455 167.161M523.435 120.374L531.158 74.4197M523.435 120.374L560.439 98.8431M523.435 120.374L547.568 148.654M531.158 74.4197V58.673M531.158 74.4197L560.439 98.8431M560.439 98.8431L569.771 106.877M560.439 98.8431L598.087 84.405M560.439 98.8431H579.894M547.568 148.654L569.771 106.877M547.568 148.654L569.771 146.726M547.568 148.654L573.31 171.149M569.771 106.877L579.894 98.8431M569.771 106.877V146.726M600.661 83.4178L598.087 84.405M600.661 83.4178L640.561 98.8431M600.661 83.4178L621.254 99.222M598.087 84.405L579.894 98.8431M579.894 98.8431L592.295 127.766M592.295 127.766H608.705M592.295 127.766L584.278 134.514M569.771 146.726L578.137 163.437M569.771 146.726L584.278 134.514M573.31 171.149L541.455 167.161M640.561 98.8431L631.229 106.877M640.561 98.8431L621.254 99.222M631.229 106.877L621.254 99.222M631.229 106.877V146.083M631.229 106.877L654.397 148.654M621.254 99.222L608.705 127.766M608.705 127.766L617.004 134.514M631.229 146.083L654.397 148.654M631.229 146.083L622.863 163.437M631.229 146.083L617.004 134.514M654.397 148.654L628.977 171.149M628.977 171.149L660.265 167.161M578.137 163.437L600.661 178.541L622.863 163.437M578.137 163.437L584.894 146.083M578.137 163.437L600.661 165.043L622.863 163.437M622.863 163.437L616.75 146.083M584.894 146.083L584.278 134.514M584.894 146.083L600.661 155.403L616.75 146.083M616.75 146.083L617.004 134.514" stroke="white" stroke-width="3"/>
<defs>
<filter id="filter0_d_304_51" x="12" y="0" width="709" height="446" filterUnits="userSpaceOnUse" color-interpolation-filters="sRGB">
<feFlood flood-opacity="0" result="BackgroundImageFix"/>
<feColorMatrix in="SourceAlpha" type="matrix" values="0 0 0 0 0 0 0 0 0 0 0 0 0 0 0 0 0 0 127 0" result="hardAlpha"/>
<feOffset/>
<feGaussianBlur stdDeviation="5"/>
<feComposite in2="hardAlpha" operator="out"/>
<feColorMatrix type="matrix" values="0 0 0 0 0 0 0 0 0 0 0 0 0 0 0 0 0 0 1 0"/>
<feBlend mode="normal" in2="BackgroundImageFix" result="effect1_dropShadow_304_51"/>
<feBlend mode="normal" in="SourceGraphic" in2="effect1_dropShadow_304_51" result="shape"/>
</filter>
<filter id="filter1_d_304_51" x="268" y="331" width="198" height="71" filterUnits="userSpaceOnUse" color-interpolation-filters="sRGB">
<feFlood flood-opacity="0" result="BackgroundImageFix"/>
<feColorMatrix in="SourceAlpha" type="matrix" values="0 0 0 0 0 0 0 0 0 0 0 0 0 0 0 0 0 0 127 0" result="hardAlpha"/>
<feOffset/>
<feGaussianBlur stdDeviation="4.5"/>
<feComposite in2="hardAlpha" operator="out"/>
<feColorMatrix type="matrix" values="0 0 0 0 0 0 0 0 0 0 0 0 0 0 0 0 0 0 0.25 0"/>
<feBlend mode="normal" in2="BackgroundImageFix" result="effect1_dropShadow_304_51"/>
<feBlend mode="normal" in="SourceGraphic" in2="effect1_dropShadow_304_51" result="shape"/>
</filter>
<filter id="filter2_b_304_51" x="0" y="102" width="491" height="54" filterUnits="userSpaceOnUse" color-interpolation-filters="sRGB">
<feFlood flood-opacity="0" result="BackgroundImageFix"/>
<feGaussianBlur in="BackgroundImage" stdDeviation="4.5"/>
<feComposite in2="SourceAlpha" operator="in" result="effect1_backgroundBlur_304_51"/>
<feBlend mode="normal" in="SourceGraphic" in2="effect1_backgroundBlur_304_51" result="shape"/>
</filter>
<filter id="filter3_di_304_51" x="0" y="138" width="31" height="28" filterUnits="userSpaceOnUse" color-interpolation-filters="sRGB">
<feFlood flood-opacity="0" result="BackgroundImageFix"/>
<feColorMatrix in="SourceAlpha" type="matrix" values="0 0 0 0 0 0 0 0 0 0 0 0 0 0 0 0 0 0 127 0" result="hardAlpha"/>
<feOffset/>
<feGaussianBlur stdDeviation="4.5"/>
<feComposite in2="hardAlpha" operator="out"/>
<feColorMatrix type="matrix" values="0 0 0 0 0 0 0 0 0 0 0 0 0 0 0 0 0 0 0.25 0"/>
<feBlend mode="normal" in2="BackgroundImageFix" result="effect1_dropShadow_304_51"/>
<feBlend mode="normal" in="SourceGraphic" in2="effect1_dropShadow_304_51" result="shape"/>
<feColorMatrix in="SourceAlpha" type="matrix" values="0 0 0 0 0 0 0 0 0 0 0 0 0 0 0 0 0 0 127 0" result="hardAlpha"/>
<feOffset dy="-7"/>
<feGaussianBlur stdDeviation="1.5"/>
<feComposite in2="hardAlpha" operator="arithmetic" k2="-1" k3="1"/>
<feColorMatrix type="matrix" values="0 0 0 0 0 0 0 0 0 0 0 0 0 0 0 0 0 0 0.25 0"/>
<feBlend mode="normal" in2="shape" result="effect2_innerShadow_304_51"/>
</filter>
<linearGradient id="paint0_linear_304_51" x1="366.5" y1="10" x2="366.5" y2="436" gradientUnits="userSpaceOnUse">
<stop stop-color="#83FFB4"/>
<stop offset="1" stop-color="#244621"/>
</linearGradient>
<linearGradient id="paint1_linear_304_51" x1="366.5" y1="10" x2="366.5" y2="436" gradientUnits="userSpaceOnUse">
<stop stop-color="#7EAE82"/>
<stop offset="0.708333" stop-color="#060906"/>
</linearGradient>
<linearGradient id="paint2_linear_304_51" x1="366.5" y1="10" x2="366.5" y2="436" gradientUnits="userSpaceOnUse">
<stop stop-color="#529743"/>
<stop offset="1" stop-color="#070707"/>
</linearGradient>
<linearGradient id="paint3_linear_304_51" x1="277" y1="366.5" x2="457" y2="366.5" gradientUnits="userSpaceOnUse">
<stop stop-color="#1C5A1F"/>
<stop offset="0.9999" stop-color="#206B0A"/>
</linearGradient>
<linearGradient id="paint4_linear_304_51" x1="9" y1="129" x2="482" y2="129" gradientUnits="userSpaceOnUse">
<stop offset="0.21875" stop-color="#364A38"/>
<stop offset="0.625" stop-color="#19531F"/>
<stop offset="1" stop-color="#44A708"/>
</linearGradient>
</defs>
</svg>
