<svg viewBox="0 0 596 524" xmlns="http://www.w3.org/2000/svg">
  <path d="M476 321L471.5 329.5M471.5 329.5L467 338L458 352L447 364L425 377.5L433 390V400L428 414L413.5 428L387.5 443L355.5 455.5L387.5 460.5H409L428 455.5L443 446.5L458 433L472 414L481 400L492.5 385.5L502 377.5L514.5 374.5L521 377.5L524.5 390V403L521 417L514.5 433L502 452.5L528.5 428L549.5 403L559.5 385.5L565 369L568 359L573.5 356L577 343V329V321L584.5 314.5V294V279L577 268.5L568 263L573.5 260.5L584.5 263L580.5 247L571 230L559.5 217.5L549.5 208.5L538.5 200.5L545 193.5L554.5 190L565 193.5L577 203.5L595 230L589 200.5L577 176.5L565 158.5L549.5 138.5L528.5 120L514.5 109.5L481 91V69L476 55.5L467 31.5L458.5 12.5L452 22L438.5 42L422 62.5L409 78.5L393 91L343.5 109.5L322 120L303.5 128.5L289.5 141.5L278 155L271.5 170H285L289.5 165L295 158.5L303.5 155L310 158.5L299 173.5L256.5 170L242.5 176.5L224 186L203.5 196H185L169 200.5L173 214L181 225.5L187 235.5L192 247H203.5L207.5 256L216.5 265.5L229 273.5H242.5L234.5 263L229 256L224 247V239L229 247H238V235.5L246.5 241.5L248 235.5V222.5L256.5 214H269L289.5 212.5L310 217.5L328.5 230L335.5 237.5L332 247L328.5 265.5L327 282.5V303L314.5 314.5L303.5 318C298.833 317.833 289.5 318.2 289.5 321L299 329.5L289.5 329L278 325.5V329.5L289.5 338H281L271.5 333L261.5 329.5L265.5 338L271.5 343H285L271.5 347.5L285 356L310 352L322 338L338 321L352.5 308.5L366.5 299.5H384H399.5L406 294V282.5L396.5 268.5L387.5 260.5L377 256L366.5 247L362.5 239V225.5L366.5 235.5L372 247L384 252L399.5 256L409 273.5L413.5 282.5V308.5V329L406 352L399.5 369L393 382L409 377.5L425 369L438.5 360.99L447 352L452 343L471.5 329.5ZM196.867 468.118C196.674 467.856 196.612 467.938 196.5 468.5V460.5L203.5 449.5L224 438L253 421.5L273 405.5L289.5 390L299 377.5L261.5 400L234.5 414L203.5 425.5L177 433H150L131.5 417L107.5 394L87.5 356L73 325.5L65.5 306.5L64 290.5L58 306.5L64 329L77.5 359L84 382L97.5 410.5L119.5 446.5L97.5 449.5L73 452.5H44L58 460.5L77.5 468.5L97.5 473H119.5H144L163.5 485L185 496.5L216.5 508L238 513L265.5 516H314.5L343.5 513L310 503.5L285 499.5L261.5 492.5L234.5 485C231 485 224.517 481.695 211 477.5C199.759 474.011 197.533 469.02 196.867 468.118ZM196.867 468.118H203.5M203.5 468.118L216.5 452.5L295 449.5L256.5 463.5L238 473H224L203.5 468.118ZM372 513L396.5 508L420 499.5L438.5 489.5L458 477.5L476 460.5L492.5 438L502 417L508.5 394L514.5 382C509.5 381.667 500.1 386.4 498.5 390C496.9 393.6 490.167 396.667 487.5 400L476 417L458 438L443 455.5L428 463.5L409 468.5L393 492.5L384 503.5L377 508L372 513ZM64 410.5L91 421.5L107.5 438H87.5L64 410.5ZM137.5 405.5L163.5 325.5L169 410.5L150 421.5L137.5 405.5ZM141 489.5L148.5 482.5L169 496.5L177 523.5L155.5 499.5L141 489.5ZM274.5 123L269 116L261.5 95L252.5 84.5L236 76H213.5L201 73.5L178 55.5L144.5 49.5L106.5 46L58 49.5L29 55.5L2 66C10.8333 68.5 29.2 73.5 32 73.5C34.8 73.5 54.5 75.1667 64 76L87.5 84.5L102.5 73.5L94 84.5L100 92L106.5 95L122.5 91L115 98.5L122.5 120L128 113L136 109.5H144.5L151 113L144.5 123L141 135.5L132.5 151.5L121.5 162.5L106.5 170L94 176.5L77.5 193.5L69.5 204.5C68.3333 209.167 59.5991 222.728 58 225.5C50.5 238.5 51.6667 233.5 50.5 239L43.5 256L38 273.5V285.5L43.5 273.5L50.5 256L64 225.5L80 204.5L91.5 192L102.5 186L115 180.5H132.5L122.5 204.5L112 230L106.5 247L102.5 268.5L100 290.5L106.5 268.5L112 247L121.5 217.5L132.5 193.5L141 180.5L151 173.5L154.5 162.5L158.5 155H169L181 151.5L192 145L203.5 138.5L216.5 128.5L224 123L234.5 116L238 113L246.5 116L252.5 120H261.5L274.5 123ZM55 204.5V180.5L65.5 158.5L80 128.5L94 105.5H106.5V123L94 131.5L87.5 145L73 162.5L65.5 180.5L55 204.5ZM128 18H154.5L178 22L203.5 31.5L229 46L234.5 55.5L229 62.5L216.5 69L203.5 62.5L194 52H185V46L181 38.5L169 31.5L151 26L128 18ZM221.5 16L242.5 12.5L269 5H285L314.5 1.5L352.5 5L384 12.5L419 26L384 22L343.5 18L303.5 22L274.5 26L248 34.5L236 26L229 22L221.5 16Z" />
</svg>
